<mxfile host="app.diagrams.net" modified="2022-04-28T11:56:23.857Z" agent="5.0 (Windows)" etag="ssHZyvzU5lru70tBWxIx" version="17.4.6" type="github">
  <diagram id="1NJB4Y3KFaz34IGwsJe7" name="Page-1">
    <mxGraphModel dx="1185" dy="650" grid="1" gridSize="10" guides="1" tooltips="1" connect="1" arrows="1" fold="1" page="1" pageScale="1" pageWidth="1169" pageHeight="827" math="0" shadow="0">
      <root>
        <mxCell id="0" />
        <mxCell id="1" parent="0" />
        <mxCell id="tJyAoPYg000rC-CEnVHe-7" style="edgeStyle=orthogonalEdgeStyle;rounded=0;orthogonalLoop=1;jettySize=auto;html=1;exitX=1;exitY=0.5;exitDx=0;exitDy=0;entryX=0;entryY=0.5;entryDx=0;entryDy=0;" edge="1" parent="1" source="tJyAoPYg000rC-CEnVHe-1" target="tJyAoPYg000rC-CEnVHe-2">
          <mxGeometry relative="1" as="geometry" />
        </mxCell>
        <mxCell id="tJyAoPYg000rC-CEnVHe-1" value="Markdown" style="rounded=0;whiteSpace=wrap;html=1;" vertex="1" parent="1">
          <mxGeometry x="320" y="384" width="120" height="60" as="geometry" />
        </mxCell>
        <mxCell id="tJyAoPYg000rC-CEnVHe-5" value="Quarto" style="edgeStyle=orthogonalEdgeStyle;rounded=0;orthogonalLoop=1;jettySize=auto;html=1;exitX=1;exitY=0.5;exitDx=0;exitDy=0;entryX=0;entryY=0.5;entryDx=0;entryDy=0;" edge="1" parent="1" source="tJyAoPYg000rC-CEnVHe-2" target="tJyAoPYg000rC-CEnVHe-4">
          <mxGeometry relative="1" as="geometry" />
        </mxCell>
        <mxCell id="tJyAoPYg000rC-CEnVHe-6" value="Quarto" style="edgeStyle=orthogonalEdgeStyle;rounded=0;orthogonalLoop=1;jettySize=auto;html=1;exitX=1;exitY=0.5;exitDx=0;exitDy=0;entryX=0;entryY=0.5;entryDx=0;entryDy=0;" edge="1" parent="1" source="tJyAoPYg000rC-CEnVHe-2" target="tJyAoPYg000rC-CEnVHe-3">
          <mxGeometry relative="1" as="geometry" />
        </mxCell>
        <mxCell id="tJyAoPYg000rC-CEnVHe-2" value="Rstudio" style="rounded=1;whiteSpace=wrap;html=1;" vertex="1" parent="1">
          <mxGeometry x="510" y="384" width="120" height="60" as="geometry" />
        </mxCell>
        <mxCell id="tJyAoPYg000rC-CEnVHe-10" style="edgeStyle=orthogonalEdgeStyle;rounded=0;orthogonalLoop=1;jettySize=auto;html=1;exitX=1;exitY=0.5;exitDx=0;exitDy=0;" edge="1" parent="1" source="tJyAoPYg000rC-CEnVHe-3" target="tJyAoPYg000rC-CEnVHe-8">
          <mxGeometry relative="1" as="geometry" />
        </mxCell>
        <mxCell id="tJyAoPYg000rC-CEnVHe-11" style="edgeStyle=orthogonalEdgeStyle;rounded=0;orthogonalLoop=1;jettySize=auto;html=1;exitX=1;exitY=0.5;exitDx=0;exitDy=0;entryX=0.5;entryY=0;entryDx=0;entryDy=0;" edge="1" parent="1" source="tJyAoPYg000rC-CEnVHe-3" target="tJyAoPYg000rC-CEnVHe-12">
          <mxGeometry relative="1" as="geometry">
            <mxPoint x="1040" y="610" as="targetPoint" />
          </mxGeometry>
        </mxCell>
        <mxCell id="tJyAoPYg000rC-CEnVHe-3" value="PDF" style="rounded=1;whiteSpace=wrap;html=1;" vertex="1" parent="1">
          <mxGeometry x="810" y="420" width="120" height="60" as="geometry" />
        </mxCell>
        <mxCell id="tJyAoPYg000rC-CEnVHe-9" style="edgeStyle=orthogonalEdgeStyle;rounded=0;orthogonalLoop=1;jettySize=auto;html=1;exitX=1;exitY=0.5;exitDx=0;exitDy=0;entryX=0;entryY=0.5;entryDx=0;entryDy=0;" edge="1" parent="1" source="tJyAoPYg000rC-CEnVHe-4" target="tJyAoPYg000rC-CEnVHe-8">
          <mxGeometry relative="1" as="geometry" />
        </mxCell>
        <mxCell id="tJyAoPYg000rC-CEnVHe-4" value="Webseite" style="rounded=1;whiteSpace=wrap;html=1;" vertex="1" parent="1">
          <mxGeometry x="810" y="330" width="120" height="60" as="geometry" />
        </mxCell>
        <mxCell id="tJyAoPYg000rC-CEnVHe-8" value="Manuell auf den Ordner im Server stellen" style="rounded=1;whiteSpace=wrap;html=1;" vertex="1" parent="1">
          <mxGeometry x="990" y="240" width="120" height="60" as="geometry" />
        </mxCell>
        <mxCell id="tJyAoPYg000rC-CEnVHe-12" value="Sonstige Verwertung" style="rounded=1;whiteSpace=wrap;html=1;" vertex="1" parent="1">
          <mxGeometry x="1040" y="480" width="120" height="60" as="geometry" />
        </mxCell>
        <mxCell id="tJyAoPYg000rC-CEnVHe-14" style="edgeStyle=orthogonalEdgeStyle;rounded=0;orthogonalLoop=1;jettySize=auto;html=1;exitX=0.5;exitY=1;exitDx=0;exitDy=0;entryX=0;entryY=0.5;entryDx=0;entryDy=0;" edge="1" parent="1" source="tJyAoPYg000rC-CEnVHe-13" target="tJyAoPYg000rC-CEnVHe-1">
          <mxGeometry relative="1" as="geometry" />
        </mxCell>
        <mxCell id="tJyAoPYg000rC-CEnVHe-13" value="&lt;div&gt;Hack MD (collaborativ)&lt;/div&gt;&lt;div&gt;oder Alternative&lt;br&gt;&lt;/div&gt;" style="rounded=0;whiteSpace=wrap;html=1;" vertex="1" parent="1">
          <mxGeometry x="140" y="290" width="120" height="60" as="geometry" />
        </mxCell>
      </root>
    </mxGraphModel>
  </diagram>
</mxfile>
